<?xml version="1.0" encoding="iso-8859-1"?>
<!-- Generator: Adobe Illustrator 18.0.0, SVG Export Plug-In . SVG Version: 6.00 Build 0)  -->
<!DOCTYPE svg PUBLIC "-//W3C//DTD SVG 1.1//EN" "http://www.w3.org/Graphics/SVG/1.1/DTD/svg11.dtd">
<svg version="1.1" id="_x33_" xmlns="http://www.w3.org/2000/svg" xmlns:xlink="http://www.w3.org/1999/xlink" x="0px" y="0px"
	 viewBox="0 0 512 512" style="enable-background:new 0 0 512 512;" xml:space="preserve">
<g>
	<rect style="fill:#3C3F44;" width="512" height="512"/>
	<polygon style="opacity:0.1;fill:#040000;" points="512,227.635 512,512 226.099,512 110.797,396.698 395.93,111.565 	"/>
	<g>
		<path style="fill:#FEF9EB;" d="M367.9,408.517H143.083c-21.222,0-38.426-17.204-38.426-38.426V145.274
			c0-21.222,17.204-38.426,38.426-38.426H367.9c21.222,0,38.426,17.204,38.426,38.426v224.817
			C406.326,391.313,389.122,408.517,367.9,408.517z"/>
		<path style="fill:#666767;" d="M406.321,367.328v18.532c0,12.51-10.131,22.656-22.641,22.656H127.314
			c-12.51,0-22.656-10.146-22.656-22.656v-18.532c0,12.509,10.146,22.656,22.656,22.656H383.68
			C396.19,389.984,406.321,379.837,406.321,367.328z"/>
		<path style="fill:#3B3632;" d="M406.321,129.5v83.396H104.658V129.5c0-12.51,10.146-22.656,22.656-22.656H383.68
			C396.19,106.844,406.321,116.99,406.321,129.5z"/>
		<rect x="134.248" y="106.72" style="fill:#E31E16;" width="20.849" height="106.175"/>
		<rect x="155.097" y="106.72" style="fill:#E8B01E;" width="20.849" height="106.175"/>
		<rect x="175.946" y="106.72" style="fill:#60BD97;" width="20.849" height="106.175"/>
		<rect x="196.795" y="106.72" style="fill:#56A6DC;" width="20.849" height="106.175"/>
		<circle style="fill:#E2DCD0;" cx="256.511" cy="250.54" r="76.125"/>
		<path style="fill:#918C8A;" d="M406.321,129.376v7.335c0-12.509-10.131-22.656-22.641-22.656H127.314
			c-12.51,0-22.656,10.147-22.656,22.656v-7.335c0-12.51,10.146-22.656,22.656-22.656H383.68
			C396.19,106.72,406.321,116.867,406.321,129.376z"/>
		<path style="fill:#2B2C2D;" d="M226.25,220.284c16.563-16.563,43.43-16.675,60.143-0.355l17.473-17.472
			c-26.348-25.954-68.892-25.842-95.088,0.355c-26.197,26.197-26.309,68.74-0.355,95.088l17.473-17.473
			C209.575,263.714,209.688,236.847,226.25,220.284z"/>
		<path style="fill:#252728;" d="M304.239,298.273c26.319-26.319,26.319-69.143,0-95.461c-0.122-0.122-0.25-0.234-0.373-0.355
			l-17.473,17.472c0.123,0.12,0.251,0.232,0.373,0.355c16.684,16.685,16.684,43.832,0,60.516c-16.685,16.684-43.832,16.684-60.516,0
			c-0.122-0.122-0.234-0.25-0.355-0.373L208.423,297.9c0.121,0.123,0.232,0.251,0.355,0.373
			C235.097,324.592,277.92,324.592,304.239,298.273z"/>
		<path style="fill:#2F3D45;" d="M293.468,213.8L293.468,213.8l-0.004-0.004c-0.036-0.037-0.067-0.077-0.103-0.114l-0.997-0.963
			l-0.027,0.027c-9.711-9.209-22.396-14.298-35.844-14.298c-13.933,0-27.016,5.411-36.842,15.237
			c-19.894,19.896-20.237,52.328-0.937,72.684l-0.025,0.025l0.962,1.003c0.037,0.036,0.078,0.066,0.114,0.103l0.001,0l0,0
			c9.817,9.759,22.856,15.138,36.741,15.138c13.939,0,27.027-5.413,36.857-15.242C313.648,267.115,313.679,234.136,293.468,213.8z
			 M277.423,250.543c0,5.595-2.172,10.85-6.118,14.796c-3.946,3.946-9.2,6.119-14.797,6.119c-5.555,0-10.769-2.152-14.706-6.044
			l-0.491-0.519c-7.701-8.151-7.521-21.228,0.4-29.149c3.939-3.939,9.185-6.11,14.771-6.11c5.377,0,10.484,2.029,14.379,5.71
			l0.515,0.486C275.272,239.769,277.423,244.984,277.423,250.543z"/>
		<path style="fill:#2F3D45;" d="M378.698,196.254h-40.32c-7.953,0-14.4-6.447-14.4-14.4v-40.32c0-7.953,6.447-14.4,14.4-14.4h40.32
			c7.953,0,14.4,6.447,14.4,14.4v40.32C393.098,189.807,386.651,196.254,378.698,196.254z"/>
		<g>
			<g>
				<path style="fill:#252728;" d="M358.538,192.939L358.538,192.939c-17.185,0-31.245-14.06-31.245-31.245l0,0
					c0-17.185,14.06-31.245,31.245-31.245l0,0c17.185,0,31.245,14.061,31.245,31.245l0,0
					C389.783,178.879,375.723,192.939,358.538,192.939z"/>
			</g>
			<g>
				<path style="fill:#2F3133;" d="M358.538,187.337c-14.139,0-25.642-11.503-25.642-25.643s11.503-25.643,25.642-25.643
					c14.139,0,25.643,11.504,25.643,25.643S372.678,187.337,358.538,187.337z"/>
			</g>
			<g>
				<path style="fill:#252728;" d="M358.538,177.95c-8.964,0-16.256-7.292-16.256-16.256c0-8.964,7.292-16.256,16.256-16.256
					c8.964,0,16.256,7.292,16.256,16.256C374.794,170.658,367.502,177.95,358.538,177.95z"/>
			</g>
			<g>
				<path style="fill:#CCCCCC;" d="M358.538,168.563c-3.788,0-6.869-3.081-6.869-6.869s3.081-6.869,6.869-6.869
					c3.788,0,6.869,3.081,6.869,6.869S362.326,168.563,358.538,168.563z"/>
			</g>
			<g>
				<path style="fill:#2F3133;" d="M358.538,167.976c-3.464,0-6.282-2.818-6.282-6.282c0-3.464,2.819-6.282,6.282-6.282
					c3.464,0,6.282,2.818,6.282,6.282C364.82,165.158,362.002,167.976,358.538,167.976z"/>
			</g>
			<g>
				<path style="fill:#3F4244;" d="M373.125,150.428c-0.07,2.682-2.31,4.804-4.988,4.734l-0.082-0.002
					c-0.355-2.244-2.257-3.993-4.594-4.094c-0.047-0.287-0.066-0.587-0.059-0.891c0.07-2.678,2.306-4.805,4.989-4.734
					C371.069,145.51,373.195,147.75,373.125,150.428z"/>
			</g>
		</g>
		<circle style="fill:#203038;" cx="256.506" cy="250.544" r="37.334"/>
		<path style="opacity:0.58;fill:#262626;" d="M208.423,297.9c0.121,0.123,0.232,0.251,0.355,0.373
			c26.319,26.319,69.142,26.319,95.461,0c26.319-26.319,26.319-69.143,0-95.461c-0.122-0.122-0.25-0.234-0.373-0.355"/>
		
			<ellipse transform="matrix(0.8475 0.5308 -0.5308 0.8475 167.8441 -107.4083)" style="opacity:0.44;fill:#2B2C2D;" cx="270.861" cy="238.421" rx="14.493" ry="11.056"/>
		
			<ellipse transform="matrix(0.8125 0.5829 -0.5829 0.8125 190.2328 -112.7609)" style="fill:#6B6F72;" cx="270.426" cy="239.375" rx="9.435" ry="7.197"/>
		
			<ellipse transform="matrix(0.7674 0.6411 -0.6411 0.7674 226.6831 -87.6943)" style="opacity:0.44;fill:#2B2C2D;" cx="234.214" cy="268.6" rx="5.664" ry="4.321"/>
		
			<ellipse transform="matrix(0.7674 0.6411 -0.6411 0.7674 227.1836 -86.8175)" style="fill:#2B2C2D;" cx="233.261" cy="269.741" rx="3.715" ry="2.834"/>
	</g>
</g>
</svg>
